<svg width="30" height="30" viewBox="0 0 30 30" fill="none" xmlns="http://www.w3.org/2000/svg">
<path d="M9.78124 16.25L15.9062 22.375C16.1562 22.625 16.2762 22.9167 16.2662 23.25C16.2562 23.5833 16.1258 23.875 15.875 24.125C15.625 24.3542 15.3333 24.4742 15 24.485C14.6667 24.4958 14.375 24.3758 14.125 24.125L5.87499 15.875C5.74999 15.75 5.66124 15.6146 5.60874 15.4688C5.55624 15.3229 5.53082 15.1667 5.53249 15C5.53415 14.8333 5.5604 14.6771 5.61124 14.5312C5.66207 14.3854 5.7504 14.25 5.87624 14.125L14.1262 5.875C14.3554 5.64583 14.6421 5.53125 14.9862 5.53125C15.3304 5.53125 15.6271 5.64583 15.8762 5.875C16.1262 6.125 16.2512 6.42208 16.2512 6.76625C16.2512 7.11042 16.1262 7.40708 15.8762 7.65625L9.78124 13.75H23.75C24.1042 13.75 24.4012 13.87 24.6412 14.11C24.8812 14.35 25.0008 14.6467 25 15C24.9992 15.3533 24.8792 15.6504 24.64 15.8913C24.4008 16.1321 24.1042 16.2517 23.75 16.25H9.78124Z" fill="black"/>
</svg>
