<svg width="150" height="150" viewBox="0 0 150 150" fill="none" xmlns="http://www.w3.org/2000/svg">
<path d="M137.5 79.3624C137.487 88.5499 137.418 96.3499 136.9 102.756C136.293 110.194 135.05 116.406 132.275 121.562C131.062 123.822 129.525 125.892 127.712 127.706C122.506 132.912 115.881 135.269 107.481 136.394C99.2746 137.5 88.7496 137.5 75.3309 137.5H74.6684C61.2434 137.5 50.7309 137.5 42.5184 136.394C34.1246 135.269 27.4934 132.912 22.2934 127.706C17.6809 123.094 15.2934 117.356 14.0309 110.237C12.7809 103.237 12.5559 94.5374 12.5121 83.7312C12.4996 80.9812 12.4954 78.0707 12.4996 74.9999V74.6624C12.4996 61.2374 12.4996 50.7249 13.6059 42.5124C14.7309 34.1187 17.0871 27.4874 22.2934 22.2874C27.4996 17.0874 34.1246 14.7249 42.5184 13.5999C49.8184 12.6187 59.2059 12.5062 70.6371 12.4937C71.7941 12.4937 72.9037 12.9533 73.7219 13.7714C74.54 14.5895 74.9996 15.6991 74.9996 16.8562C74.9996 18.0132 74.54 19.1228 73.7219 19.9409C72.9037 20.759 71.7941 21.2187 70.6371 21.2187C59.0434 21.2312 50.4246 21.3312 43.6809 22.2374C36.2496 23.2374 31.7684 25.1374 28.4559 28.4499C25.1434 31.7624 23.2496 36.2499 22.2496 43.6874C21.2309 51.2499 21.2184 61.1749 21.2184 74.9999V79.8999L27.0434 74.8124C29.5967 72.5784 32.9035 71.3982 36.2943 71.5108C39.685 71.6233 42.9063 73.0203 45.3059 75.4187L70.2434 100.356C72.1781 102.292 74.7339 103.483 77.4607 103.72C80.1874 103.957 82.9102 103.224 85.1496 101.65L86.8871 100.431C90.117 98.161 94.0216 97.054 97.9624 97.2913C101.903 97.5286 105.647 99.0961 108.581 101.737L125.037 116.55C126.693 113.069 127.681 108.5 128.206 102.05C128.7 95.9749 128.768 88.5999 128.775 79.3624C128.775 78.2054 129.234 77.0958 130.052 76.2776C130.87 75.4595 131.98 74.9999 133.137 74.9999C134.294 74.9999 135.404 75.4595 136.222 76.2776C137.04 77.0958 137.5 78.2054 137.5 79.3624Z" fill="#E4E4E4"/>
<path fill-rule="evenodd" clip-rule="evenodd" d="M109.375 68.75C96.1187 68.75 89.4875 68.75 85.3688 64.6312C81.25 60.5125 81.25 53.8812 81.25 40.625C81.25 27.3687 81.25 20.7375 85.3688 16.6187C89.4875 12.5 96.1187 12.5 109.375 12.5C122.631 12.5 129.262 12.5 133.381 16.6187C137.5 20.7375 137.5 27.3687 137.5 40.625C137.5 53.8812 137.5 60.5125 133.381 64.6312C129.262 68.75 122.631 68.75 109.375 68.75ZM114.062 28.125C114.062 26.8818 113.569 25.6895 112.69 24.8104C111.81 23.9314 110.618 23.4375 109.375 23.4375C108.132 23.4375 106.94 23.9314 106.06 24.8104C105.181 25.6895 104.688 26.8818 104.688 28.125V35.9375H96.875C95.6318 35.9375 94.4395 36.4314 93.5604 37.3104C92.6814 38.1895 92.1875 39.3818 92.1875 40.625C92.1875 41.8682 92.6814 43.0605 93.5604 43.9396C94.4395 44.8186 95.6318 45.3125 96.875 45.3125H104.688V53.125C104.688 54.3682 105.181 55.5605 106.06 56.4396C106.94 57.3186 108.132 57.8125 109.375 57.8125C110.618 57.8125 111.81 57.3186 112.69 56.4396C113.569 55.5605 114.062 54.3682 114.062 53.125V45.3125H121.875C123.118 45.3125 124.31 44.8186 125.19 43.9396C126.069 43.0605 126.562 41.8682 126.562 40.625C126.562 39.3818 126.069 38.1895 125.19 37.3104C124.31 36.4314 123.118 35.9375 121.875 35.9375H114.062V28.125Z" fill="#E4E4E4"/>
</svg>
