<svg width="119" height="119" viewBox="0 0 119 119" fill="none" xmlns="http://www.w3.org/2000/svg">
<path d="M59.5 11.1562C60.4863 11.1562 61.4322 11.548 62.1296 12.2454C62.827 12.9428 63.2188 13.8887 63.2188 14.875V29.75C63.2188 30.7363 62.827 31.6822 62.1296 32.3796C61.4322 33.077 60.4863 33.4688 59.5 33.4688C58.5137 33.4688 57.5679 33.077 56.8704 32.3796C56.173 31.6822 55.7812 30.7363 55.7812 29.75V14.875C55.7812 13.8887 56.173 12.9428 56.8704 12.2454C57.5679 11.548 58.5137 11.1563 59.5 11.1562ZM93.6927 25.3073C94.3891 26.0046 94.7802 26.9498 94.7802 27.9352C94.7802 28.9207 94.3891 29.8659 93.6927 30.5632L83.186 41.0748C82.4843 41.7519 81.5447 42.1263 80.5697 42.1174C79.5947 42.1084 78.6621 41.7169 77.973 41.0271C77.2838 40.3373 76.8931 39.4044 76.8851 38.4293C76.8771 37.4543 77.2524 36.5151 77.9301 35.814L88.4319 25.3073C89.1291 24.6109 90.0743 24.2198 91.0598 24.2198C92.0453 24.2198 92.9954 24.6109 93.6927 25.3073ZM85.5312 59.5C85.5312 58.5137 85.923 57.5679 86.6204 56.8704C87.3178 56.173 88.2637 55.7812 89.25 55.7812H104.125C105.111 55.7812 106.057 56.173 106.755 56.8704C107.452 57.5679 107.844 58.5137 107.844 59.5C107.844 60.4863 107.452 61.4322 106.755 62.1296C106.057 62.827 105.111 63.2188 104.125 63.2188H89.25C88.2637 63.2188 87.3178 62.827 86.6204 62.1296C85.923 61.4322 85.5312 60.4863 85.5312 59.5ZM77.9301 77.9301C78.6274 77.2337 79.5726 76.8426 80.558 76.8426C81.5435 76.8426 82.4887 77.2337 83.186 77.9301L93.6927 88.4319C94.3704 89.1329 94.7457 90.0721 94.7377 91.0472C94.7297 92.0222 94.339 92.9551 93.6498 93.6449C92.9607 94.3347 92.0282 94.7263 91.0531 94.7352C90.0781 94.7441 89.1385 94.3697 88.4368 93.6927L77.9252 83.186C77.2288 82.4887 76.8376 81.5435 76.8376 80.558C76.8376 79.5726 77.2288 78.6274 77.9252 77.9301M59.5 85.5312C60.4863 85.5312 61.4322 85.923 62.1296 86.6204C62.827 87.3178 63.2188 88.2637 63.2188 89.25V104.125C63.2188 105.111 62.827 106.057 62.1296 106.755C61.4322 107.452 60.4863 107.844 59.5 107.844C58.5137 107.844 57.5679 107.452 56.8704 106.755C56.173 106.057 55.7812 105.111 55.7812 104.125V89.25C55.7812 88.2637 56.173 87.3178 56.8704 86.6204C57.5679 85.923 58.5137 85.5312 59.5 85.5312ZM41.0699 77.9301C41.7663 78.6274 42.1574 79.5726 42.1574 80.558C42.1574 81.5435 41.7663 82.4887 41.0699 83.186L30.5681 93.6927C30.2277 94.058 29.8171 94.3511 29.361 94.5543C28.9048 94.7576 28.4124 94.8669 27.913 94.8757C27.4137 94.8845 26.9178 94.7926 26.4547 94.6056C25.9917 94.4186 25.571 94.1402 25.2179 93.7871C24.8648 93.4339 24.5864 93.0133 24.3994 92.5503C24.2123 92.0872 24.1205 91.5912 24.1293 91.0919C24.1381 90.5926 24.2474 90.1002 24.4506 89.644C24.6539 89.1878 24.9469 88.7773 25.3123 88.4368L35.814 77.9252C36.5113 77.2288 37.4565 76.8376 38.442 76.8376C39.4274 76.8376 40.3726 77.2288 41.0699 77.9252M11.1562 59.5C11.1562 58.5137 11.548 57.5679 12.2454 56.8704C12.9428 56.173 13.8887 55.7812 14.875 55.7812H29.75C30.7363 55.7812 31.6822 56.173 32.3796 56.8704C33.077 57.5679 33.4688 58.5137 33.4688 59.5C33.4688 60.4863 33.077 61.4322 32.3796 62.1296C31.6822 62.827 30.7363 63.2188 29.75 63.2188H14.875C13.8887 63.2188 12.9428 62.827 12.2454 62.1296C11.548 61.4322 11.1562 60.4863 11.1562 59.5ZM25.3073 25.3073C26.0046 24.6109 26.9498 24.2198 27.9352 24.2198C28.9207 24.2198 29.8659 24.6109 30.5632 25.3073L41.0748 35.814C41.7519 36.5157 42.1263 37.4553 42.1174 38.4303C42.1084 39.4054 41.7169 40.3379 41.0271 41.027C40.3373 41.7162 39.4044 42.1069 38.4293 42.1149C37.4543 42.1229 36.5151 41.7476 35.814 41.0699L25.3073 30.5681C24.9618 30.2228 24.6876 29.8127 24.5006 29.3614C24.3136 28.91 24.2173 28.4263 24.2173 27.9377C24.2173 27.4492 24.3136 26.9654 24.5006 26.5141C24.6876 26.0627 24.9618 25.6527 25.3073 25.3073Z" fill="#F08E67"/>
</svg>
