<svg width="30" height="30" viewBox="0 0 30 30" fill="none" xmlns="http://www.w3.org/2000/svg">
<path d="M26.25 14.5575V26.25C26.25 26.5815 26.1183 26.8995 25.8839 27.1339C25.6495 27.3683 25.3315 27.5 25 27.5H5C4.66848 27.5 4.35054 27.3683 4.11612 27.1339C3.8817 26.8995 3.75 26.5815 3.75 26.25V14.5575C2.9444 13.644 2.49992 12.4679 2.5 11.25V3.75C2.5 3.41848 2.6317 3.10054 2.86612 2.86612C3.10054 2.6317 3.41848 2.5 3.75 2.5H26.25C26.5815 2.5 26.8995 2.6317 27.1339 2.86612C27.3683 3.10054 27.5 3.41848 27.5 3.75V11.25C27.5001 12.4679 27.0556 13.644 26.25 14.5575ZM23.75 16.0925C22.856 16.3217 21.9162 16.2997 21.0339 16.0289C20.1517 15.758 19.3613 15.2489 18.75 14.5575C18.2808 15.0895 17.7037 15.5155 17.0571 15.8073C16.4106 16.0991 15.7094 16.25 15 16.25C14.2906 16.25 13.5894 16.0991 12.9429 15.8073C12.2963 15.5155 11.7192 15.0895 11.25 14.5575C10.6404 15.2512 9.85016 15.762 8.96735 16.033C8.08455 16.304 7.14383 16.3246 6.25 16.0925V25H23.75V16.0925ZM17.5 11.25C17.5 10.9185 17.6317 10.6005 17.8661 10.3661C18.1005 10.1317 18.4185 10 18.75 10C19.0815 10 19.3995 10.1317 19.6339 10.3661C19.8683 10.6005 20 10.9185 20 11.25C20 11.913 20.2634 12.5489 20.7322 13.0178C21.2011 13.4866 21.837 13.75 22.5 13.75C23.163 13.75 23.7989 13.4866 24.2678 13.0178C24.7366 12.5489 25 11.913 25 11.25V5H5V11.25C5 11.913 5.26339 12.5489 5.73223 13.0178C6.20107 13.4866 6.83696 13.75 7.5 13.75C8.16304 13.75 8.79893 13.4866 9.26777 13.0178C9.73661 12.5489 10 11.913 10 11.25C10 10.9185 10.1317 10.6005 10.3661 10.3661C10.6005 10.1317 10.9185 10 11.25 10C11.5815 10 11.8995 10.1317 12.1339 10.3661C12.3683 10.6005 12.5 10.9185 12.5 11.25C12.5 11.913 12.7634 12.5489 13.2322 13.0178C13.7011 13.4866 14.337 13.75 15 13.75C15.663 13.75 16.2989 13.4866 16.7678 13.0178C17.2366 12.5489 17.5 11.913 17.5 11.25Z" fill="#F08E67"/>
</svg>
