<svg width="30" height="30" viewBox="0 0 30 30" fill="none" xmlns="http://www.w3.org/2000/svg">
<path d="M5 5C5 4.33696 5.26339 3.70107 5.73223 3.23223C6.20107 2.76339 6.83696 2.5 7.5 2.5H22.5C23.163 2.5 23.7989 2.76339 24.2678 3.23223C24.7366 3.70107 25 4.33696 25 5V26.25C25 26.4797 24.9368 26.7049 24.8172 26.9009C24.6976 27.097 24.5264 27.2563 24.3222 27.3615C24.118 27.4666 23.8888 27.5134 23.6598 27.4969C23.4307 27.4803 23.2107 27.4009 23.0238 27.2675L15 21.5363L6.97625 27.2675C6.78934 27.4009 6.56928 27.4803 6.34023 27.4969C6.11118 27.5134 5.88198 27.4666 5.67781 27.3615C5.47363 27.2563 5.30236 27.097 5.18279 26.9009C5.06322 26.7049 4.99998 26.4797 5 26.25V5ZM22.5 5H7.5V23.8212L14.2737 18.9838C14.4857 18.8325 14.7396 18.7511 15 18.7511C15.2604 18.7511 15.5143 18.8325 15.7263 18.9838L22.5 23.82V5Z" fill="#F08E67"/>
</svg>
