<svg width="24" height="24" viewBox="0 0 24 24" fill="none" xmlns="http://www.w3.org/2000/svg">
<path d="M6.63068 2.4193C6.63068 2.90575 6.43744 3.37228 6.09347 3.71626C5.74949 4.06023 5.28296 4.25348 4.79651 4.25348C4.31005 4.25348 3.84352 4.06023 3.49955 3.71626C3.15557 3.37228 2.96233 2.90575 2.96233 2.4193C2.96233 1.93284 3.15557 1.46631 3.49955 1.12234C3.84352 0.778363 4.31005 0.58512 4.79651 0.58512C5.28296 0.58512 5.74949 0.778363 6.09347 1.12234C6.43744 1.46631 6.63068 1.93284 6.63068 2.4193ZM9.12946 7.6111V6.68442C9.12951 6.45264 9.08389 6.22312 8.99521 6.00898C8.90654 5.79483 8.77654 5.60025 8.61264 5.43636C8.44875 5.27246 8.25417 5.14247 8.04002 5.05379C7.82588 4.96511 7.59636 4.9195 7.36458 4.91954H2.22291C1.75489 4.91974 1.3061 5.10574 0.975164 5.43668C0.644227 5.76762 0.458222 6.21641 0.458027 6.68442V7.6111C0.456113 7.63242 0.455129 7.65382 0.455078 7.67523V13.0108C0.455078 13.2098 0.534146 13.4007 0.674889 13.5415C0.815631 13.6822 1.00652 13.7613 1.20556 13.7613C1.4046 13.7613 1.59548 13.6822 1.73623 13.5415C1.87697 13.4007 1.95604 13.2098 1.95604 13.0108V7.75448H2.45918V13.7616H2.46287V22.2502C2.4679 22.5123 2.57553 22.7619 2.76262 22.9454C2.94972 23.129 3.20135 23.2318 3.46345 23.2318C3.72554 23.2318 3.97717 23.129 4.16427 22.9454C4.35137 22.7619 4.45899 22.5123 4.46402 22.2502V13.7616H5.1242V22.2502C5.1242 22.5156 5.22959 22.77 5.4172 22.9576C5.60481 23.1452 5.85927 23.2506 6.12459 23.2506C6.38991 23.2506 6.64436 23.1452 6.83197 22.9576C7.01959 22.77 7.12498 22.5156 7.12498 22.2502V13.7616H7.12793V7.75448H7.63108V13.0108C7.63719 13.2058 7.71894 13.3907 7.85901 13.5264C7.99909 13.6622 8.18649 13.7381 8.38156 13.7381C8.57662 13.7381 8.76403 13.6622 8.9041 13.5264C9.04418 13.3907 9.12593 13.2058 9.13204 13.0108V7.67523C9.13211 7.65383 9.13125 7.63243 9.12946 7.6111ZM17.9557 4.13515C18.3185 4.13501 18.673 4.02729 18.9746 3.82563C19.2761 3.62397 19.5111 3.33741 19.6498 3.0022C19.7885 2.667 19.8247 2.29819 19.7538 1.94242C19.6828 1.58665 19.508 1.25991 19.2514 1.00349C18.9948 0.747083 18.6679 0.572526 18.3121 0.501897C17.9562 0.431268 17.5875 0.467739 17.2524 0.606698C16.9173 0.745658 16.6309 0.980864 16.4295 1.28257C16.2281 1.58428 16.1206 1.93895 16.1208 2.30171C16.1209 2.54258 16.1684 2.78107 16.2607 3.00357C16.353 3.22606 16.4881 3.42821 16.6585 3.59846C16.8289 3.76871 17.0312 3.90373 17.2537 3.99582C17.4763 4.0879 17.7148 4.13525 17.9557 4.13515ZM23.0981 12.0432L21.4527 5.93984C21.4377 5.88525 21.4166 5.83257 21.3896 5.78282C21.296 5.49648 21.1143 5.24703 20.8705 5.07003C20.6268 4.89304 20.3333 4.79754 20.0321 4.79717H15.8676C15.5531 4.79762 15.2476 4.90168 14.9983 5.09325C14.7489 5.28481 14.5697 5.55321 14.4882 5.85691C14.4774 5.88394 14.468 5.91183 14.4599 5.94058L12.8435 12.0432C12.818 12.1384 12.8115 12.2376 12.8243 12.3353C12.8372 12.433 12.8692 12.5272 12.9184 12.6125C12.9677 12.6979 13.0332 12.7726 13.1114 12.8326C13.1896 12.8926 13.2788 12.9366 13.3739 12.9621C13.4691 12.9876 13.5684 12.9942 13.6661 12.9813C13.7637 12.9685 13.8579 12.9365 13.9433 12.8872C14.0286 12.838 14.1034 12.7724 14.1634 12.6942C14.2234 12.6161 14.2674 12.5269 14.2929 12.4317L15.5627 7.63764H16.0917L13.7875 16.3113H15.9582V22.2996C15.9582 22.5208 16.0461 22.7328 16.2024 22.8892C16.3588 23.0456 16.5709 23.1334 16.792 23.1334C17.0131 23.1334 17.2252 23.0456 17.3816 22.8892C17.538 22.7328 17.6258 22.5208 17.6258 22.2996V16.3113H18.2893V22.2996C18.2957 22.5165 18.3864 22.7223 18.5421 22.8734C18.6977 23.0245 18.9061 23.109 19.1231 23.109C19.34 23.109 19.5484 23.0245 19.7041 22.8734C19.8597 22.7223 19.9504 22.5165 19.9569 22.2996V16.3113H22.1265L19.8138 7.63764H20.3564L21.6488 12.4317C21.7004 12.6238 21.8262 12.7876 21.9985 12.887C22.1708 12.9865 22.3755 13.0135 22.5677 12.9621C22.7599 12.9106 22.9237 12.7848 23.0232 12.6125C23.1228 12.4402 23.1495 12.2354 23.0981 12.0432ZM10.595 0.505501H11.8888V23.1312H10.595V0.505501Z" fill="#F08E67"/>
</svg>
