<svg width="11" height="11" viewBox="0 0 11 11" fill="none" xmlns="http://www.w3.org/2000/svg">
<path d="M1.68934 5.16696C1.64558 5.12561 1.59411 5.09328 1.53786 5.07183C1.48161 5.05037 1.42168 5.0402 1.3615 5.0419C1.30132 5.04361 1.24206 5.05715 1.18712 5.08175C1.13217 5.10635 1.0826 5.14154 1.04125 5.18529C0.999905 5.22905 0.967578 5.28052 0.946121 5.33678C0.924664 5.39303 0.914497 5.45295 0.916199 5.51313C0.917901 5.57331 0.93144 5.63257 0.956043 5.68752C0.980646 5.74246 1.01583 5.79203 1.05959 5.83338L5.18459 9.72921C5.26969 9.80966 5.38235 9.85449 5.49946 9.85449C5.61657 9.85449 5.72924 9.80966 5.81434 9.72921L9.9398 5.83338C9.98451 5.7923 10.0206 5.74275 10.046 5.6876C10.0714 5.63245 10.0856 5.5728 10.0878 5.51212C10.0899 5.45144 10.08 5.39093 10.0586 5.33412C10.0372 5.27731 10.0047 5.22532 9.96297 5.18117C9.92128 5.13702 9.87124 5.1016 9.81574 5.07696C9.76025 5.05231 9.70041 5.03894 9.63971 5.03762C9.579 5.0363 9.51864 5.04705 9.46213 5.06925C9.40561 5.09146 9.35408 5.12467 9.31051 5.16696L5.49946 8.76579L1.68934 5.16696Z" fill="black" fill-opacity="0.4"/>
</svg>
