<svg width="30" height="30" viewBox="0 0 30 30" fill="none" xmlns="http://www.w3.org/2000/svg">
<rect width="30" height="30" transform="matrix(-1 0 0 1 30 0)" fill="white"/>
<path d="M11.415 6.84668L11.2412 6.9082L11.0693 6.84082L5.25684 4.59082V4.5918L5.25195 4.58887C4.99197 4.48487 4.78955 4.51331 4.57812 4.66895C4.35081 4.83636 4.25 5.03611 4.25 5.3125V22.8125C4.25 22.9799 4.29559 23.1134 4.38379 23.2314C4.47539 23.3539 4.60665 23.455 4.79688 23.5293L11.249 25.7207L18.585 23.1533L18.7588 23.0918L18.9307 23.1592L24.7432 25.4082L24.748 25.4111C25.0086 25.5153 25.2115 25.4872 25.4229 25.332C25.6491 25.166 25.75 24.9662 25.75 24.6875V7.1875C25.75 7.02058 25.704 6.88764 25.6152 6.76953C25.5217 6.6452 25.39 6.54291 25.2002 6.46875L18.752 4.27832L11.415 6.84668ZM6.42871 6.6582L10.1787 8.0957L10.5 8.21875V23.8809L9.8418 23.6621L6.0918 22.4121L5.75 22.2979V6.39746L6.42871 6.6582ZM20.1582 6.33789L23.9082 7.58789L24.25 7.70215V23.6025L23.5713 23.3418L19.8213 21.9043L19.5 21.7812V6.11914L20.1582 6.33789ZM12 8.20801L12.335 8.09082L17.335 6.34082L18 6.10742V21.792L17.665 21.9092L12.665 23.6592L12 23.8926V8.20801Z" fill="#B1B1B1" stroke="#B1B1B1"/>
</svg>
