<svg width="32" height="32" viewBox="0 0 32 32" fill="none" xmlns="http://www.w3.org/2000/svg">
<path fill-rule="evenodd" clip-rule="evenodd" d="M12 16C12 19.5 11.33 22.188 10.368 23.888C9.442 25.528 8.434 26 7.5 26C6.566 26 5.56 25.526 4.632 23.888C4.088 22.928 3.64 21.656 3.352 20.098C3.918 20.676 4.646 21 5.5 21C7.652 21 9 18.94 9 16C9 13.06 7.652 11 5.5 11C5.09921 10.9955 4.70173 11.0731 4.332 11.2278C3.96227 11.3826 3.62809 11.6113 3.35 11.9C3.64 10.344 4.09 9.07 4.63 8.112C5.56 6.472 6.568 6 7.5 6C8.432 6 9.44 6.474 10.368 8.112C11.33 9.812 12 12.5 12 16ZM15 16C15 23.644 12.11 29 7.5 29C2.89 29 0 23.644 0 16C0 8.356 2.89 3 7.5 3C12.11 3 15 8.356 15 16ZM29 16C29 19.5 28.33 22.188 27.368 23.888C26.442 25.528 25.434 26 24.5 26C23.566 26 22.56 25.526 21.632 23.888C21.088 22.928 20.64 21.656 20.352 20.098C20.918 20.676 21.646 21 22.5 21C24.652 21 26 18.94 26 16C26 13.06 24.652 11 22.5 11C22.0992 10.9955 21.7017 11.0731 21.332 11.2278C20.9623 11.3826 20.6281 11.6113 20.35 11.9C20.64 10.344 21.09 9.07 21.63 8.112C22.56 6.472 23.568 6 24.5 6C25.432 6 26.44 6.474 27.368 8.112C28.33 9.812 29 12.502 29 16ZM32 16C32 23.644 29.11 29 24.5 29C19.89 29 17 23.644 17 16C17 8.356 19.89 3 24.5 3C29.11 3 32 8.356 32 16Z" fill="#F08E67"/>
</svg>
