<svg width="30" height="30" viewBox="0 0 30 30" fill="none" xmlns="http://www.w3.org/2000/svg">
<path d="M3.73999 14.4704C3.73999 12.4304 4.24999 10.5404 5.25999 8.81043C6.26999 7.08043 7.63999 5.71043 9.36999 4.70043C11.1 3.69043 12.98 3.19043 15.01 3.19043C16.53 3.19043 17.99 3.49043 19.38 4.08043C20.77 4.67043 21.96 5.48043 22.97 6.48043C23.98 7.48043 24.78 8.68043 25.37 10.0804C25.96 11.4804 26.26 12.9304 26.26 14.4704C26.26 15.9904 25.96 17.4504 25.37 18.8404C24.78 20.2304 23.97 21.4304 22.97 22.4304C21.97 23.4304 20.77 24.2304 19.38 24.8204C17.99 25.4104 16.54 25.7104 15.01 25.7104C13.48 25.7104 12.01 25.4104 10.62 24.8204C9.22999 24.2304 8.02999 23.4204 7.01999 22.4204C6.00999 21.4204 5.21999 20.2204 4.61999 18.8404C4.01999 17.4604 3.73999 16.0004 3.73999 14.4704ZM6.21999 14.4704C6.21999 16.8404 7.07999 18.9004 8.80999 20.6504C10.54 22.3804 12.6 23.2404 15.01 23.2404C16.59 23.2404 18.06 22.8504 19.4 22.0604C20.74 21.2704 21.82 20.2104 22.61 18.8604C23.4 17.5104 23.8 16.0504 23.8 14.4704C23.8 12.8904 23.4 11.4204 22.61 10.0704C21.82 8.72043 20.75 7.65043 19.4 6.86043C18.05 6.07043 16.59 5.68043 15.01 5.68043C13.43 5.68043 11.96 6.07043 10.62 6.86043C9.27999 7.65043 8.19999 8.72043 7.39999 10.0704C6.59999 11.4204 6.21999 12.8904 6.21999 14.4704ZM14.14 14.4704V7.81043C14.14 7.58043 14.22 7.38043 14.38 7.22043C14.54 7.06043 14.74 6.98043 14.97 6.98043C15.2 6.98043 15.4 7.06043 15.56 7.22043C15.72 7.38043 15.8 7.58043 15.8 7.81043V13.6304H19.58C19.81 13.6304 20.01 13.7104 20.17 13.8704C20.33 14.0304 20.41 14.2304 20.41 14.4604C20.41 14.6804 20.33 14.8804 20.17 15.0504C20.01 15.2204 19.81 15.3004 19.58 15.3004H15.14C15.11 15.3104 15.05 15.3104 14.96 15.3104C14.85 15.3124 14.7409 15.2919 14.6391 15.2502C14.5374 15.2084 14.4453 15.1463 14.3685 15.0676C14.2917 14.9889 14.2318 14.8953 14.1925 14.7926C14.1532 14.6899 14.1353 14.5803 14.14 14.4704Z" fill="#B1B1B1"/>
</svg>
