<svg width="31" height="31" viewBox="0 0 31 31" fill="none" xmlns="http://www.w3.org/2000/svg">
<path d="M15.499 2.0835C18.3722 2.0835 21.1285 3.2247 23.1602 5.25635C25.1916 7.2879 26.3329 10.0435 26.333 12.9165C26.333 16.982 23.8931 21.0159 21.5342 23.98C20.3457 25.4733 19.1584 26.719 18.2686 27.5913C17.8233 28.0278 17.4515 28.3716 17.1904 28.6069C17.0599 28.7246 16.9565 28.8149 16.8857 28.8765C16.8505 28.9071 16.8234 28.9308 16.8047 28.9468C16.7954 28.9547 16.7882 28.9611 16.7832 28.9653C16.7808 28.9674 16.7787 28.9691 16.7773 28.9702L16.7754 28.9722C16.7754 28.9722 16.7751 28.972 16.7744 28.9712C16.0613 29.6122 14.9323 29.6003 14.2236 28.9712V28.9722L14.2217 28.9702C14.2203 28.9691 14.2183 28.9674 14.2158 28.9653C14.2108 28.9611 14.2037 28.9548 14.1943 28.9468C14.1756 28.9307 14.1477 28.9073 14.1123 28.8765C14.0416 28.8149 13.9389 28.7244 13.8086 28.6069C13.5476 28.3716 13.1757 28.0277 12.7305 27.5913C11.8406 26.719 10.6533 25.4733 9.46484 23.98C7.10589 21.0159 4.66602 16.982 4.66602 12.9165C4.6661 10.0434 5.8073 7.28791 7.83887 5.25635C9.87043 3.22478 12.626 2.08358 15.499 2.0835ZM15.499 8.896C14.4327 8.89608 13.4102 9.31975 12.6562 10.0737C11.9023 10.8277 11.4786 11.8502 11.4785 12.9165C11.4785 13.9829 11.9022 15.0062 12.6562 15.7603C13.4102 16.5141 14.4328 16.9379 15.499 16.938C16.027 16.938 16.5503 16.8334 17.0381 16.6313C17.5259 16.4293 17.9694 16.1336 18.3428 15.7603C18.7161 15.3869 19.0118 14.9434 19.2139 14.4556C19.4159 13.9677 19.5205 13.4445 19.5205 12.9165C19.5205 12.3887 19.4158 11.8661 19.2139 11.3784C19.0118 10.8907 18.7161 10.4471 18.3428 10.0737C17.9694 9.70036 17.5259 9.40373 17.0381 9.20166C16.5503 8.99963 16.027 8.896 15.499 8.896Z" fill="#F3FFF9" stroke="#F08E67"/>
</svg>
