<svg width="12" height="7" viewBox="0 0 12 7" fill="none" xmlns="http://www.w3.org/2000/svg">
<path d="M1.15075 0.576043C1.09506 0.523415 1.02954 0.482273 0.957953 0.454964C0.886361 0.427655 0.810092 0.414714 0.733499 0.416881C0.656906 0.419047 0.58149 0.436279 0.511556 0.467592C0.441623 0.498904 0.378542 0.543684 0.325914 0.599376C0.273287 0.655067 0.232145 0.720579 0.204836 0.792171C0.177526 0.863763 0.164586 0.940032 0.166752 1.01663C0.168919 1.09322 0.186151 1.16863 0.217463 1.23857C0.248776 1.3085 0.293556 1.37158 0.349248 1.42421L5.59925 6.38254C5.70755 6.48494 5.85095 6.54199 6 6.54199C6.14905 6.54199 6.29244 6.48494 6.40075 6.38254L11.6513 1.42421C11.7082 1.37193 11.7542 1.30886 11.7865 1.23867C11.8189 1.16848 11.8369 1.09257 11.8397 1.01534C11.8424 0.938106 11.8298 0.8611 11.8025 0.788792C11.7752 0.716484 11.7339 0.650315 11.6808 0.594128C11.6278 0.537941 11.5641 0.492856 11.4934 0.461492C11.4228 0.430129 11.3467 0.413111 11.2694 0.411429C11.1921 0.409746 11.1153 0.423432 11.0434 0.451691C10.9715 0.47995 10.9059 0.522219 10.8504 0.576043L6 5.15638L1.15075 0.576043Z" fill="black"/>
</svg>
