<svg width="184" height="184" viewBox="0 0 184 184" fill="none" xmlns="http://www.w3.org/2000/svg">
<path d="M168.667 97.3509C168.651 108.621 168.567 118.189 167.931 126.047C167.187 135.171 165.661 142.791 162.257 149.116C160.77 151.888 158.884 154.427 156.661 156.653C150.274 163.039 142.148 165.929 131.844 167.309C121.777 168.666 108.867 168.666 92.4063 168.666H91.5937C75.1257 168.666 62.2303 168.666 52.1563 167.309C41.86 165.929 33.7257 163.039 27.347 156.653C21.689 150.995 18.7603 143.957 17.2117 135.224C15.6783 126.638 15.4023 115.966 15.3487 102.71C15.3333 99.3365 15.3282 95.7664 15.3333 91.9995V91.5855C15.3333 75.1175 15.3333 62.2222 16.6903 52.1482C18.0703 41.8519 20.9607 33.7175 27.347 27.3389C33.7333 20.9602 41.86 18.0622 52.1563 16.6822C61.111 15.4785 72.6263 15.3405 86.6487 15.3252C88.0679 15.3252 89.4291 15.889 90.4326 16.8926C91.4362 17.8961 92 19.2573 92 20.6765C92 22.0958 91.4362 23.4569 90.4326 24.4605C89.4291 25.4641 88.0679 26.0279 86.6487 26.0279C72.427 26.0432 61.8547 26.1659 53.5823 27.2775C44.4667 28.5042 38.9697 30.8349 34.9063 34.8982C30.843 38.9615 28.52 44.4662 27.2933 53.5895C26.0437 62.8662 26.0283 75.0409 26.0283 91.9995V98.0102L33.1737 91.7695C36.3057 89.0292 40.3621 87.5815 44.5215 87.7195C48.6808 87.8576 52.6323 89.5712 55.5757 92.5132L86.1657 123.103C88.539 125.478 91.6741 126.939 95.0189 127.229C98.3637 127.52 101.704 126.621 104.451 124.69L106.582 123.195C110.544 120.41 115.334 119.053 120.168 119.344C125.002 119.635 129.594 121.558 133.193 124.798L153.379 142.968C155.411 138.697 156.622 133.093 157.266 125.181C157.872 117.729 157.956 108.682 157.964 97.3509C157.964 95.9316 158.528 94.5705 159.531 93.5669C160.535 92.5633 161.896 91.9995 163.315 91.9995C164.735 91.9995 166.096 92.5633 167.099 93.5669C168.103 94.5705 168.667 95.9316 168.667 97.3509Z" fill="#E4E4E4"/>
<path fill-rule="evenodd" clip-rule="evenodd" d="M134.167 84.333C117.906 84.333 109.771 84.333 104.719 79.2807C99.6666 74.2283 99.6666 66.094 99.6666 49.833C99.6666 33.572 99.6666 25.4377 104.719 20.3853C109.771 15.333 117.906 15.333 134.167 15.333C150.428 15.333 158.562 15.333 163.614 20.3853C168.667 25.4377 168.667 33.572 168.667 49.833C168.667 66.094 168.667 74.2283 163.614 79.2807C158.562 84.333 150.428 84.333 134.167 84.333ZM139.917 34.4997C139.917 32.9747 139.311 31.5121 138.232 30.4338C137.154 29.3555 135.692 28.7497 134.167 28.7497C132.642 28.7497 131.179 29.3555 130.101 30.4338C129.022 31.5121 128.417 32.9747 128.417 34.4997V44.083H118.833C117.308 44.083 115.846 44.6888 114.767 45.7671C113.689 46.8455 113.083 48.308 113.083 49.833C113.083 51.358 113.689 52.8205 114.767 53.8989C115.846 54.9772 117.308 55.583 118.833 55.583H128.417V65.1663C128.417 66.6913 129.022 68.1539 130.101 69.2322C131.179 70.3105 132.642 70.9163 134.167 70.9163C135.692 70.9163 137.154 70.3105 138.232 69.2322C139.311 68.1539 139.917 66.6913 139.917 65.1663V55.583H149.5C151.025 55.583 152.487 54.9772 153.566 53.8989C154.644 52.8205 155.25 51.358 155.25 49.833C155.25 48.308 154.644 46.8455 153.566 45.7671C152.487 44.6888 151.025 44.083 149.5 44.083H139.917V34.4997Z" fill="#E4E4E4"/>
</svg>
