<svg width="32" height="32" viewBox="0 0 32 32" fill="none" xmlns="http://www.w3.org/2000/svg">
<path fill-rule="evenodd" clip-rule="evenodd" d="M21.117 1.95193L4.99221 18.0767C4.75116 18.3172 4.5931 18.6283 4.54101 18.9647L3.41301 26.3151C3.37495 26.5634 3.39587 26.8171 3.47407 27.0558C3.55227 27.2945 3.68556 27.5114 3.86316 27.689C4.04076 27.8666 4.25767 27.9999 4.49634 28.0781C4.73502 28.1563 4.98875 28.1772 5.23701 28.1391L12.589 27.0111C12.9253 26.9595 13.2363 26.802 13.477 26.5615L29.6018 10.4367C29.9018 10.1367 30.0703 9.72979 30.0703 9.30552C30.0703 8.88126 29.9018 8.47437 29.6018 8.17433L23.3778 1.95033C23.0778 1.65086 22.6713 1.48267 22.2474 1.48267C21.8235 1.48267 21.417 1.65086 21.117 1.95033M6.90741 24.6463L7.62421 19.9679L22.2482 5.34392L26.2082 9.30552L11.5842 23.9295L6.90741 24.6463Z" fill="#F08E67"/>
<path d="M18.3076 8.39511L20.0036 6.69751L25.1908 11.8815L23.4932 13.5791L18.3076 8.39511Z" fill="#F08E67"/>
</svg>
