<svg width="40" height="40" viewBox="0 0 40 40" fill="none" xmlns="http://www.w3.org/2000/svg">
<circle cx="20" cy="20" r="20" fill="#FEB99D"/>
<circle cx="19.9993" cy="20.0003" r="13.3333" fill="white"/>
<path d="M19.2936 28.3644C19.4812 28.5519 19.7355 28.6572 20.0006 28.6572C20.2658 28.6572 20.5201 28.5519 20.7076 28.3644L26.3646 22.7074C26.4601 22.6152 26.5363 22.5048 26.5887 22.3828C26.6411 22.2608 26.6687 22.1296 26.6699 21.9968C26.671 21.8641 26.6457 21.7324 26.5955 21.6095C26.5452 21.4866 26.4709 21.3749 26.377 21.281C26.2831 21.1872 26.1715 21.1129 26.0486 21.0626C25.9257 21.0123 25.794 20.987 25.6612 20.9882C25.5285 20.9893 25.3972 21.0169 25.2752 21.0693C25.1532 21.1217 25.0429 21.1979 24.9506 21.2934L21.0006 25.2434V12.0004C21.0006 11.7352 20.8953 11.4809 20.7077 11.2933C20.5202 11.1058 20.2659 11.0004 20.0006 11.0004C19.7354 11.0004 19.4811 11.1058 19.2935 11.2933C19.106 11.4809 19.0006 11.7352 19.0006 12.0004V25.2434L15.0506 21.2934C14.862 21.1113 14.6094 21.0105 14.3472 21.0128C14.085 21.015 13.8342 21.1202 13.6488 21.3056C13.4634 21.491 13.3582 21.7418 13.356 22.004C13.3537 22.2662 13.4545 22.5188 13.6366 22.7074L19.2936 28.3644Z" fill="black"/>
</svg>
