<svg width="21" height="21" viewBox="0 0 21 21" fill="none" xmlns="http://www.w3.org/2000/svg">
<rect width="21" height="21" rx="5" fill="#FEB99D"/>
<path d="M10.5 11.75C11.8788 11.75 13 10.6288 13 9.25C13 7.87125 11.8788 6.75 10.5 6.75C9.12125 6.75 8 7.87125 8 9.25C8 10.6288 9.12125 11.75 10.5 11.75ZM10.5 8C11.1894 8 11.75 8.56062 11.75 9.25C11.75 9.93937 11.1894 10.5 10.5 10.5C9.81062 10.5 9.25 9.93937 9.25 9.25C9.25 8.56062 9.81062 8 10.5 8Z" fill="white"/>
<path d="M10.1376 16.6337C10.2434 16.7091 10.3701 16.7496 10.5001 16.7496C10.63 16.7496 10.7567 16.7091 10.8626 16.6337C11.0526 16.4994 15.5182 13.275 15.5001 9.25C15.5001 6.49313 13.2569 4.25 10.5001 4.25C7.74318 4.25 5.50006 6.49312 5.50006 9.24687C5.48193 13.275 9.94756 16.4994 10.1376 16.6337ZM10.5001 5.5C12.5682 5.5 14.2501 7.18188 14.2501 9.25313C14.2632 12.0269 11.5076 14.5175 10.5001 15.3344C9.49318 14.5169 6.73693 12.0256 6.75005 9.25C6.75005 7.18187 8.43193 5.5 10.5001 5.5Z" fill="white"/>
</svg>
