<svg width="32" height="32" viewBox="0 0 32 32" fill="none" xmlns="http://www.w3.org/2000/svg">
<path d="M5.3335 16.0001C5.3335 16.3537 5.47397 16.6928 5.72402 16.9429C5.97407 17.1929 6.31321 17.3334 6.66683 17.3334H16.7868L13.7202 20.3867C13.5952 20.5107 13.496 20.6582 13.4283 20.8206C13.3606 20.9831 13.3258 21.1574 13.3258 21.3334C13.3258 21.5094 13.3606 21.6837 13.4283 21.8462C13.496 22.0087 13.5952 22.1561 13.7202 22.2801C13.8441 22.4051 13.9916 22.5042 14.1541 22.5719C14.3165 22.6396 14.4908 22.6745 14.6668 22.6745C14.8428 22.6745 15.0171 22.6396 15.1796 22.5719C15.3421 22.5042 15.4895 22.4051 15.6135 22.2801L20.9468 16.9467C21.0682 16.8199 21.1634 16.6704 21.2268 16.5067C21.3602 16.1821 21.3602 15.818 21.2268 15.4934C21.1634 15.3297 21.0682 15.1802 20.9468 15.0534L15.6135 9.72008C15.4892 9.59576 15.3416 9.49715 15.1792 9.42987C15.0167 9.36259 14.8426 9.32796 14.6668 9.32796C14.491 9.32796 14.3169 9.36259 14.1545 9.42987C13.9921 9.49715 13.8445 9.59576 13.7202 9.72008C13.5958 9.8444 13.4972 9.99199 13.4299 10.1544C13.3627 10.3168 13.328 10.4909 13.328 10.6667C13.328 10.8426 13.3627 11.0167 13.4299 11.1791C13.4972 11.3415 13.5958 11.4891 13.7202 11.6134L16.7868 14.6667H6.66683C6.31321 14.6667 5.97407 14.8072 5.72402 15.0573C5.47397 15.3073 5.3335 15.6465 5.3335 16.0001ZM22.6668 2.66675H9.3335C8.27263 2.66675 7.25521 3.08818 6.50507 3.83832C5.75492 4.58847 5.3335 5.60588 5.3335 6.66675V10.6667C5.3335 11.0204 5.47397 11.3595 5.72402 11.6096C5.97407 11.8596 6.31321 12.0001 6.66683 12.0001C7.02045 12.0001 7.35959 11.8596 7.60964 11.6096C7.85969 11.3595 8.00016 11.0204 8.00016 10.6667V6.66675C8.00016 6.31313 8.14064 5.97399 8.39069 5.72394C8.64074 5.47389 8.97987 5.33341 9.3335 5.33341H22.6668C23.0205 5.33341 23.3596 5.47389 23.6096 5.72394C23.8597 5.97399 24.0002 6.31313 24.0002 6.66675V25.3334C24.0002 25.687 23.8597 26.0262 23.6096 26.2762C23.3596 26.5263 23.0205 26.6667 22.6668 26.6667H9.3335C8.97987 26.6667 8.64074 26.5263 8.39069 26.2762C8.14064 26.0262 8.00016 25.687 8.00016 25.3334V21.3334C8.00016 20.9798 7.85969 20.6407 7.60964 20.3906C7.35959 20.1406 7.02045 20.0001 6.66683 20.0001C6.31321 20.0001 5.97407 20.1406 5.72402 20.3906C5.47397 20.6407 5.3335 20.9798 5.3335 21.3334V25.3334C5.3335 26.3943 5.75492 27.4117 6.50507 28.1618C7.25521 28.912 8.27263 29.3334 9.3335 29.3334H22.6668C23.7277 29.3334 24.7451 28.912 25.4953 28.1618C26.2454 27.4117 26.6668 26.3943 26.6668 25.3334V6.66675C26.6668 5.60588 26.2454 4.58847 25.4953 3.83832C24.7451 3.08818 23.7277 2.66675 22.6668 2.66675Z" fill="#F08E67"/>
</svg>
