<svg width="30" height="30" viewBox="0 0 30 30" fill="none" xmlns="http://www.w3.org/2000/svg">
<path d="M7.255 5.02526C7.58006 4.96012 7.91768 5.02677 8.19359 5.21056C8.4695 5.39434 8.6611 5.68021 8.72625 6.00526L11.385 19.3053L13.7875 9.69651C13.8552 9.42623 14.0113 9.18633 14.231 9.01491C14.4507 8.84349 14.7214 8.75039 15 8.75039C15.2786 8.75039 15.5493 8.84349 15.769 9.01491C15.9887 9.18633 16.1448 9.42623 16.2125 9.69651L18.615 19.304L21.2737 6.00401C21.3389 5.67879 21.5306 5.39277 21.8066 5.20886C22.0826 5.02496 22.4204 4.95824 22.7456 5.02339C23.0708 5.08853 23.3569 5.2802 23.5408 5.55623C23.7247 5.83226 23.7914 6.17004 23.7263 6.49526L22.775 11.2503H23.75C24.0815 11.2503 24.3995 11.382 24.6339 11.6164C24.8683 11.8508 25 12.1687 25 12.5003C25 12.8318 24.8683 13.1497 24.6339 13.3841C24.3995 13.6186 24.0815 13.7503 23.75 13.7503H22.5C22.4258 13.7502 22.3518 13.7435 22.2787 13.7303L21.775 16.2503H23.75C24.0815 16.2503 24.3995 16.382 24.6339 16.6164C24.8683 16.8508 25 17.1687 25 17.5003C25 17.8318 24.8683 18.1497 24.6339 18.3841C24.3995 18.6186 24.0815 18.7503 23.75 18.7503H21.275L20.1938 24.1553C19.88 25.724 17.6562 25.7778 17.2687 24.2253L15 15.154L12.7325 24.2253C12.345 25.7778 10.12 25.7253 9.80625 24.1553L8.725 18.7503H6.25C5.91848 18.7503 5.60054 18.6186 5.36612 18.3841C5.1317 18.1497 5 17.8318 5 17.5003C5 17.1687 5.1317 16.8508 5.36612 16.6164C5.60054 16.382 5.91848 16.2503 6.25 16.2503H8.225L7.72125 13.7303C7.64958 13.7428 7.57583 13.7494 7.5 13.7503H6.25C5.91848 13.7503 5.60054 13.6186 5.36612 13.3841C5.1317 13.1497 5 12.8318 5 12.5003C5 12.1687 5.1317 11.8508 5.36612 11.6164C5.60054 11.382 5.91848 11.2503 6.25 11.2503H7.225L6.275 6.49526C6.20986 6.17021 6.27651 5.83259 6.4603 5.55667C6.64408 5.28076 6.92994 5.09041 7.255 5.02526Z" fill="#B1B1B1"/>
</svg>
