<svg width="15" height="15" viewBox="0 0 15 15" fill="none" xmlns="http://www.w3.org/2000/svg">
<path d="M4.85704 1.52426L5.53016 1.30926C6.16016 1.10801 6.83391 1.43363 7.10391 2.06988L7.64141 3.33738C7.87579 3.88926 7.74579 4.53863 7.32016 4.94238L6.13704 6.06613C6.20995 6.73863 6.43579 7.40051 6.81454 8.05176C7.17471 8.68167 7.65731 9.23313 8.23391 9.67363L9.65641 9.19863C10.1952 9.01926 10.782 9.22613 11.1127 9.71176L11.8827 10.843C12.2677 11.408 12.1983 12.1868 11.7214 12.6655L11.2102 13.1786C10.7014 13.6893 9.97516 13.8749 9.30266 13.6649C7.716 13.1699 6.25704 11.7005 4.92579 9.25676C3.59287 6.80884 3.12245 4.73217 3.51454 3.02676C3.67954 2.30926 4.19079 1.73738 4.85829 1.52426" fill="white"/>
</svg>
