<svg width="24" height="24" viewBox="0 0 24 24" fill="none" xmlns="http://www.w3.org/2000/svg">
<path d="M8.84723 18.8808V12.4916M8.84723 12.4916V5.61102H13.2705C13.7223 5.61102 14.1696 5.70001 14.587 5.8729C15.0044 6.04579 15.3837 6.2992 15.7032 6.61867C16.0226 6.93813 16.276 7.31738 16.4489 7.73478C16.6218 8.15218 16.7108 8.59954 16.7108 9.05133C16.7108 9.50312 16.6218 9.95049 16.4489 10.3679C16.276 10.7853 16.0226 11.1645 15.7032 11.484C15.3837 11.8035 15.0044 12.0569 14.587 12.2298C14.1696 12.4027 13.7223 12.4916 13.2705 12.4916H8.84723ZM11.7961 23.3041C5.55338 23.3041 0.492188 18.2429 0.492188 12.0002C0.492188 5.75748 5.55338 0.696289 11.7961 0.696289C18.0388 0.696289 23.1 5.75748 23.1 12.0002C23.1 18.2429 18.0388 23.3041 11.7961 23.3041Z" stroke="#F08E67"/>
</svg>
