<svg width="34" height="41" viewBox="0 0 34 41" fill="none" xmlns="http://www.w3.org/2000/svg">
<path fill-rule="evenodd" clip-rule="evenodd" d="M17 38.9494L18.5045 40.3967C18.3071 40.5879 18.0724 40.7397 17.8141 40.8432C17.5557 40.9467 17.2787 41 16.9989 41C16.7192 41 16.4422 40.9467 16.1838 40.8432C15.9254 40.7397 15.6908 40.5879 15.4934 40.3967L15.4806 40.3824L15.4445 40.3475L15.3128 40.2184C14.5637 39.4739 13.827 38.7181 13.1028 37.9511C11.2853 36.0286 9.54435 34.0401 7.88375 31.9898C5.98825 29.6323 4.05025 26.9674 2.57762 24.3352C1.13687 21.7543 0 18.9581 0 16.3998C0 7.09495 7.633 0 17 0C26.367 0 34 7.09495 34 16.3998C34 18.9581 32.8631 21.7543 31.4224 24.3331C29.9498 26.9694 28.0139 29.6323 26.1163 31.9898C23.7931 34.858 21.3133 37.6047 18.6873 40.2184L18.5555 40.3475L18.5194 40.3824L18.5066 40.3947L17 38.9494ZM17 22.5497C18.6908 22.5497 20.3123 21.9017 21.5078 20.7484C22.7034 19.5951 23.375 18.0308 23.375 16.3998C23.375 14.7687 22.7034 13.2045 21.5078 12.0511C20.3123 10.8978 18.6908 10.2499 17 10.2499C15.3092 10.2499 13.6877 10.8978 12.4922 12.0511C11.2966 13.2045 10.625 14.7687 10.625 16.3998C10.625 18.0308 11.2966 19.5951 12.4922 20.7484C13.6877 21.9017 15.3092 22.5497 17 22.5497Z" fill="#FB8750"/>
</svg>
