<svg width="30" height="30" viewBox="0 0 30 30" fill="none" xmlns="http://www.w3.org/2000/svg">
<path d="M7.5 27.5C6.8125 27.5 6.22417 27.2554 5.735 26.7663C5.24583 26.2771 5.00083 25.6883 5 25V22.5H3.75V20H5V16.25H3.75V13.75H5V10H3.75V7.5H5V5C5 4.3125 5.245 3.72417 5.735 3.235C6.225 2.74583 6.81333 2.50083 7.5 2.5H22.5C23.1875 2.5 23.7763 2.745 24.2663 3.235C24.7563 3.725 25.0008 4.31333 25 5V25C25 25.6875 24.7554 26.2763 24.2663 26.7663C23.7771 27.2563 23.1883 27.5008 22.5 27.5H7.5ZM7.5 25H22.5V5H7.5V7.5H8.75V10H7.5V13.75H8.75V16.25H7.5V20H8.75V22.5H7.5V25ZM11.875 21.25H13.75V16.25C14.2917 16.1042 14.7396 15.8075 15.0938 15.36C15.4479 14.9125 15.625 14.4071 15.625 13.8438V8.75H14.375V13.4688H13.4375V8.75H12.1875V13.4688H11.25V8.75H10V13.8438C10 14.4063 10.1771 14.9117 10.5312 15.36C10.8854 15.8083 11.3333 16.105 11.875 16.25V21.25ZM18.75 21.25H20.625V8.75C19.5833 8.75 18.6979 9.11458 17.9688 9.84375C17.2396 10.5729 16.875 11.4583 16.875 12.5V16.25H18.75V21.25Z" fill="#F08E67"/>
</svg>
