<svg width="24" height="24" viewBox="0 0 24 24" fill="none" xmlns="http://www.w3.org/2000/svg">
<path d="M2.00158 9.62999C1.97858 10.041 2.20858 10.424 2.58258 10.596L10.0866 14.038L13.5286 21.541C13.6926 21.897 14.0486 22.124 14.4376 22.124L14.4946 22.122C14.6953 22.1107 14.8879 22.0393 15.0474 21.9169C15.2069 21.7945 15.3258 21.6269 15.3886 21.436L20.9836 4.40399C21.1006 4.04599 21.0066 3.65099 20.7406 3.38399C20.4746 3.11699 20.0806 3.02599 19.7206 3.14099L2.68758 8.73599C2.49663 8.79879 2.32903 8.91768 2.20666 9.07716C2.08429 9.23663 2.01282 9.42929 2.00158 9.62999ZM18.4656 5.65899L14.2836 18.389L11.7496 12.867C11.6498 12.6494 11.4752 12.4748 11.2576 12.375L5.73358 9.84099L18.4656 5.65899Z" fill="#F08E67"/>
</svg>
