<svg width="21" height="21" viewBox="0 0 21 21" fill="none" xmlns="http://www.w3.org/2000/svg">
<rect width="21" height="21" rx="5" fill="#FEB99D"/>
<path d="M7.85704 4.52426L8.53016 4.30926C9.16016 4.10801 9.83391 4.43363 10.1039 5.06988L10.6414 6.33738C10.8758 6.88926 10.7458 7.53863 10.3202 7.94238L9.13704 9.06613C9.20995 9.73863 9.43579 10.4005 9.81454 11.0518C10.1747 11.6817 10.6573 12.2331 11.2339 12.6736L12.6564 12.1986C13.1952 12.0193 13.782 12.2261 14.1127 12.7118L14.8827 13.843C15.2677 14.408 15.1983 15.1868 14.7214 15.6655L14.2102 16.1786C13.7014 16.6893 12.9752 16.8749 12.3027 16.6649C10.716 16.1699 9.25704 14.7005 7.92579 12.2568C6.59287 9.80884 6.12245 7.73217 6.51454 6.02676C6.67954 5.30926 7.19079 4.73738 7.85829 4.52426" fill="white"/>
</svg>
