<svg width="31" height="31" viewBox="0 0 31 31" fill="none" xmlns="http://www.w3.org/2000/svg">
<path d="M15.499 2.08301C18.3722 2.08301 21.1285 3.22422 23.1602 5.25586C25.1916 7.28741 26.3329 10.043 26.333 12.916C26.333 16.9816 23.8931 21.0154 21.5342 23.9795C20.3457 25.4728 19.1584 26.7185 18.2686 27.5908C17.8233 28.0273 17.4515 28.3711 17.1904 28.6064C17.0599 28.7241 16.9565 28.8144 16.8857 28.876C16.8505 28.9066 16.8234 28.9303 16.8047 28.9463C16.7954 28.9542 16.7882 28.9606 16.7832 28.9648C16.7808 28.9669 16.7787 28.9686 16.7773 28.9697L16.7754 28.9717C16.7754 28.9717 16.7751 28.9715 16.7744 28.9707C16.0613 29.6117 14.9323 29.5999 14.2236 28.9707V28.9717L14.2217 28.9697C14.2203 28.9686 14.2183 28.967 14.2158 28.9648C14.2108 28.9606 14.2037 28.9543 14.1943 28.9463C14.1756 28.9302 14.1477 28.9068 14.1123 28.876C14.0416 28.8144 13.9389 28.7239 13.8086 28.6064C13.5476 28.3711 13.1757 28.0272 12.7305 27.5908C11.8406 26.7185 10.6533 25.4728 9.46484 23.9795C7.10589 21.0154 4.66602 16.9816 4.66602 12.916C4.6661 10.043 5.8073 7.28743 7.83887 5.25586C9.87043 3.22429 12.626 2.08309 15.499 2.08301ZM15.499 8.89551C14.4327 8.89559 13.4102 9.31927 12.6562 10.0732C11.9023 10.8272 11.4786 11.8497 11.4785 12.916C11.4785 13.9824 11.9022 15.0057 12.6562 15.7598C13.4102 16.5136 14.4328 16.9374 15.499 16.9375C16.027 16.9375 16.5503 16.8329 17.0381 16.6309C17.5259 16.4288 17.9694 16.1331 18.3428 15.7598C18.7161 15.3864 19.0118 14.9429 19.2139 14.4551C19.4159 13.9672 19.5205 13.444 19.5205 12.916C19.5205 12.3882 19.4158 11.8656 19.2139 11.3779C19.0118 10.8902 18.7161 10.4466 18.3428 10.0732C17.9694 9.69987 17.5259 9.40324 17.0381 9.20117C16.5503 8.99914 16.027 8.89551 15.499 8.89551Z" fill="#F3FFF9" stroke="#F08E67"/>
</svg>
