<svg width="30" height="30" viewBox="0 0 30 30" fill="none" xmlns="http://www.w3.org/2000/svg">
<path d="M3.74023 14.4704C3.74023 12.4304 4.25023 10.5404 5.26023 8.81043C6.27023 7.08043 7.64023 5.71043 9.37023 4.70043C11.1002 3.69043 12.9802 3.19043 15.0102 3.19043C16.5302 3.19043 17.9902 3.49043 19.3802 4.08043C20.7702 4.67043 21.9602 5.48043 22.9702 6.48043C23.9802 7.48043 24.7802 8.68043 25.3702 10.0804C25.9602 11.4804 26.2602 12.9304 26.2602 14.4704C26.2602 15.9904 25.9602 17.4504 25.3702 18.8404C24.7802 20.2304 23.9702 21.4304 22.9702 22.4304C21.9702 23.4304 20.7702 24.2304 19.3802 24.8204C17.9902 25.4104 16.5402 25.7104 15.0102 25.7104C13.4802 25.7104 12.0102 25.4104 10.6202 24.8204C9.23023 24.2304 8.03023 23.4204 7.02023 22.4204C6.01023 21.4204 5.22023 20.2204 4.62023 18.8404C4.02023 17.4604 3.74023 16.0004 3.74023 14.4704ZM6.22023 14.4704C6.22023 16.8404 7.08024 18.9004 8.81024 20.6504C10.5402 22.3804 12.6002 23.2404 15.0102 23.2404C16.5902 23.2404 18.0602 22.8504 19.4002 22.0604C20.7402 21.2704 21.8202 20.2104 22.6102 18.8604C23.4002 17.5104 23.8002 16.0504 23.8002 14.4704C23.8002 12.8904 23.4002 11.4204 22.6102 10.0704C21.8202 8.72043 20.7502 7.65043 19.4002 6.86043C18.0502 6.07043 16.5902 5.68043 15.0102 5.68043C13.4302 5.68043 11.9602 6.07043 10.6202 6.86043C9.28023 7.65043 8.20023 8.72043 7.40023 10.0704C6.60023 11.4204 6.22023 12.8904 6.22023 14.4704ZM14.1402 14.4704V7.81043C14.1402 7.58043 14.2202 7.38043 14.3802 7.22043C14.5402 7.06043 14.7402 6.98043 14.9702 6.98043C15.2002 6.98043 15.4002 7.06043 15.5602 7.22043C15.7202 7.38043 15.8002 7.58043 15.8002 7.81043V13.6304H19.5802C19.8102 13.6304 20.0102 13.7104 20.1702 13.8704C20.3302 14.0304 20.4102 14.2304 20.4102 14.4604C20.4102 14.6804 20.3302 14.8804 20.1702 15.0504C20.0102 15.2204 19.8102 15.3004 19.5802 15.3004H15.1402C15.1102 15.3104 15.0502 15.3104 14.9602 15.3104C14.8503 15.3124 14.7411 15.2919 14.6394 15.2502C14.5377 15.2084 14.4456 15.1463 14.3688 15.0676C14.2919 14.9889 14.2321 14.8953 14.1927 14.7926C14.1534 14.6899 14.1356 14.5803 14.1402 14.4704Z" fill="#F08E67"/>
</svg>
