<svg width="30" height="30" viewBox="0 0 30 30" fill="none" xmlns="http://www.w3.org/2000/svg">
<path d="M20.218 13.75L14.093 7.625C13.843 7.375 13.723 7.08333 13.733 6.75C13.743 6.41667 13.8734 6.125 14.1242 5.875C14.3742 5.64583 14.6659 5.52584 14.9992 5.515C15.3326 5.50417 15.6242 5.62417 15.8742 5.875L24.1242 14.125C24.2492 14.25 24.338 14.3854 24.3905 14.5312C24.443 14.6771 24.4684 14.8333 24.4667 15C24.4651 15.1667 24.4388 15.3229 24.388 15.4688C24.3371 15.6146 24.2488 15.75 24.123 15.875L15.873 24.125C15.6438 24.3542 15.3571 24.4688 15.013 24.4688C14.6688 24.4688 14.3721 24.3542 14.123 24.125C13.873 23.875 13.748 23.5779 13.748 23.2338C13.748 22.8896 13.873 22.5929 14.123 22.3438L20.218 16.25H6.24922C5.89505 16.25 5.59797 16.13 5.35797 15.89C5.11797 15.65 4.99839 15.3533 4.99922 15C5.00005 14.6467 5.12005 14.3496 5.35922 14.1087C5.59839 13.8679 5.89505 13.7483 6.24922 13.75H20.218Z" fill="black"/>
</svg>
