<svg width="277" height="139" viewBox="0 0 277 139" fill="none" xmlns="http://www.w3.org/2000/svg">
<path d="M41.3906 0H234.81L268 54.5H9.5L41.3906 0Z" fill="white"/>
<rect x="8" y="58" width="261" height="10" fill="white"/>
<path d="M8 65.9165C8 71.3007 8.87944 76.6322 10.5881 81.6065C12.2968 86.5809 14.8012 91.1007 17.9584 94.9079C24.3346 102.597 32.9826 106.917 42 106.917C51.0174 106.917 59.6654 102.597 66.0416 94.9079C69.1988 91.1007 71.7033 86.5809 73.4119 81.6065C75.1206 76.6322 76 71.3007 76 65.9165H8Z" fill="white"/>
<path d="M73 65.9165C73 71.3007 73.8794 76.6322 75.5881 81.6065C77.2968 86.5809 79.8012 91.1007 82.9584 94.9079C89.3346 102.597 97.9826 106.917 107 106.917C116.017 106.917 124.665 102.597 131.042 94.9079C134.199 91.1007 136.703 86.5809 138.412 81.6065C140.121 76.6322 141 71.3007 141 65.9165H73Z" fill="white"/>
<path d="M137 65.9165C137 71.3007 137.879 76.6322 139.588 81.6065C141.297 86.5809 143.801 91.1007 146.958 94.9079C153.335 102.597 161.983 106.917 171 106.917C180.017 106.917 188.665 102.597 195.042 94.9079C198.199 91.1007 200.703 86.5809 202.412 81.6065C204.121 76.6322 205 71.3007 205 65.9165H137Z" fill="white"/>
<rect x="24" y="99" width="14" height="40" fill="white"/>
<rect x="240" y="99" width="14" height="40" fill="white"/>
<path d="M269 65.9165C269 71.3007 268.121 76.6322 266.412 81.6065C264.703 86.5809 262.199 91.1007 259.042 94.9079C252.665 102.597 244.017 106.917 235 106.917C225.983 106.917 217.335 102.597 210.958 94.9079C207.801 91.1007 205.297 86.5809 203.588 81.6065C201.879 76.6322 201 71.3007 201 65.9165H269Z" fill="white"/>
</svg>
